<?xml version="1.0" standalone="no"?>
<!DOCTYPE svg PUBLIC "-//W3C//DTD SVG 20010904//EN"
 "http://www.w3.org/TR/2001/REC-SVG-20010904/DTD/svg10.dtd">
<svg version="1.0" xmlns="http://www.w3.org/2000/svg"
 width="512.000000pt" height="512.000000pt" viewBox="0 0 512.000000 512.000000"
 preserveAspectRatio="xMidYMid meet">
<metadata>
Created by potrace 1.14, written by Peter Selinger 2001-2017
</metadata>
<g transform="translate(0.000000,512.000000) scale(0.100000,-0.100000)"
fill="#000000" stroke="none">
<path d="M2280 5103 c-223 -18 -577 -116 -808 -224 -46 -21 -94 -39 -107 -39
-12 0 -28 -7 -35 -15 -9 -11 -35 -15 -106 -15 -100 0 -118 -8 -130 -57 -7 -24
-8 -25 -70 -18 -70 7 -104 -4 -104 -36 0 -18 -5 -19 -79 -13 -75 6 -79 6 -91
-16 -7 -13 -10 -37 -7 -55 l5 -32 -36 7 c-21 4 -53 10 -72 14 -39 8 -61 -8
-75 -52 -6 -20 3 -33 52 -81 32 -31 71 -66 87 -78 l30 -20 -38 -44 c-171 -200
-272 -345 -365 -529 -150 -293 -215 -498 -261 -828 -18 -129 -21 -184 -17
-355 8 -353 56 -594 179 -892 159 -384 378 -687 692 -954 80 -69 146 -130 146
-136 0 -7 -7 -34 -15 -61 -23 -74 -30 -184 -15 -229 14 -43 71 -110 111 -131
16 -8 43 -14 61 -14 21 0 43 -9 59 -24 39 -36 97 -63 163 -75 33 -6 67 -18 77
-27 26 -23 88 -43 136 -44 23 0 48 -7 57 -15 12 -12 46 -15 181 -15 l166 0 14
34 c8 18 17 63 21 99 4 36 9 69 13 75 4 6 54 4 141 -5 93 -10 202 -13 348 -10
210 4 212 4 212 -17 1 -31 34 -98 60 -121 19 -17 36 -20 119 -19 67 0 110 6
141 18 25 10 72 22 105 27 86 13 143 37 189 79 23 20 62 44 88 53 26 8 67 29
92 46 25 17 55 31 68 31 36 0 120 44 156 83 38 39 49 89 34 154 l-9 41 76 53
c169 118 398 332 522 489 265 334 409 653 505 1115 25 119 28 153 31 403 l4
274 39 79 c22 43 40 84 40 91 0 10 -75 212 -115 311 -6 13 -2 17 16 17 25 0
73 56 63 72 -3 4 -54 8 -114 8 l-110 0 17 35 c16 33 16 36 -3 57 -11 13 -40
66 -63 118 -57 127 -89 182 -187 330 -98 149 -183 251 -318 384 -132 129 -223
203 -376 304 -312 207 -712 350 -1092 391 -90 10 -393 12 -498 4z m2690 -1904
c0 -4 -9 -9 -20 -12 -16 -4 -20 0 -20 17 0 32 12 40 27 20 7 -10 13 -21 13
-25z"/>
</g>
</svg>
